<svg xmlns="http://www.w3.org/2000/svg" version="1.1" width="512" height="512">
<path d="M0 0 C0.97453125 0.47308594 1.9490625 0.94617187 2.953125 1.43359375 C23.05975996 11.81026355 39.36900412 27.97103516 55 44 C59.29692986 40.40805954 63.35470284 36.72020795 67.25 32.6875 C89.35134203 10.3014447 120.19368349 -10.38998653 152.6484375 -11.265625 C154.55727889 -11.27433742 156.46623186 -11.26885561 158.375 -11.25 C159.38594727 -11.24250732 160.39689453 -11.23501465 161.43847656 -11.22729492 C168.79337312 -11.12149884 175.81042126 -10.63672174 183 -9 C183.6894873 -8.84934082 184.37897461 -8.69868164 185.08935547 -8.54345703 C229.35562896 1.31770083 264.58076563 31.25742672 288.73046875 68.75390625 C309.91502771 102.37114941 318.36225237 143.49267529 309.53466797 182.6875 C309.35822754 183.450625 309.18178711 184.21375 309 185 C308.81195801 185.86109375 308.62391602 186.7221875 308.43017578 187.609375 C303.79825745 208.48064422 295.97447591 228.3724009 285.93261719 247.22753906 C285.02256236 248.9571197 284.15517462 250.708939 283.2890625 252.4609375 C274.77748246 269.29825521 263.73345677 285.24705263 252 300 C251.51998535 300.60714844 251.0399707 301.21429688 250.54541016 301.83984375 C243.37108377 310.89100744 235.93307529 319.60588427 228 328 C225.33333333 326.66666667 222.66666667 325.33333333 220 324 C215.93521893 328.61534219 211.91391705 333.25585812 208 338 C209.32 338 210.64 338 212 338 C211.41632611 344.30367803 209.95928381 349.98660063 208 356 C198 354 198 354 195.63354492 353.15795898 C192.79830822 352.68292528 192.79830822 352.68292528 190.54296875 355.08984375 C189.37701172 356.49943359 189.37701172 356.49943359 188.1875 357.9375 C187.39730469 358.87464844 186.60710937 359.81179688 185.79296875 360.77734375 C185.20128906 361.51082031 184.60960937 362.24429687 184 363 C184.75595963 363.00364563 185.51191925 363.00729126 186.29078674 363.01104736 C193.48258581 363.04921857 200.67388336 363.10639341 207.8653574 363.18390274 C211.56088874 363.22308992 215.25619205 363.25541674 218.9519043 363.27099609 C222.53136496 363.28635569 226.11019743 363.3211307 229.68937492 363.36830902 C231.69122038 363.38994741 233.69324418 363.39245699 235.69520569 363.39434814 C247.83535679 363.58431163 259.50478697 366.01936482 270.3125 371.75 C271.30938843 372.26542358 271.30938843 372.26542358 272.32641602 372.79125977 C278.12118572 375.88260149 283.16140417 379.55052201 288 384 C288.77859375 384.69867188 289.5571875 385.39734375 290.359375 386.1171875 C303.54826325 398.5536895 311.47927084 415.49006117 312.3203125 433.56640625 C312.65499694 445.63729397 312.37628736 457.60103904 308 469 C307.62953773 470.03439048 307.25907545 471.06878095 306.87738705 472.1345166 C302.22883664 483.21419705 295.68211702 487.6372259 285.04711914 492.73538208 C284.26008547 493.12297487 283.4730518 493.51056766 282.66216862 493.90990569 C264.63381491 502.61739551 247.69261451 503.57575985 227.9739666 503.26508975 C223.22952966 503.21082006 218.48589498 503.26303481 213.74145508 503.30026245 C204.50630212 503.35649861 195.27400922 503.3182326 186.03907287 503.2446848 C175.25066184 503.16203196 164.4628943 503.17287086 153.67424691 503.18548478 C134.41636573 503.20451877 115.15982702 503.13520425 95.90234375 503.01708984 C77.27172082 502.90285279 58.64266691 502.86064303 40.01171875 502.89404297 C19.63375075 502.93046765 -0.74353227 502.92920565 -21.12144375 502.86112797 C-23.2972609 502.85388535 -25.47307807 502.84664944 -27.64889526 502.83942032 C-28.71899269 502.83579909 -29.78909011 502.83217785 -30.89161474 502.82844689 C-38.39080494 502.80528317 -45.88973797 502.80748899 -53.38894653 502.81893539 C-62.53021569 502.83172466 -71.67011972 502.79989029 -80.81100571 502.71325408 C-85.46435016 502.67008491 -90.11571675 502.64506523 -94.76922607 502.67271423 C-129.79129286 502.85543187 -129.79129286 502.85543187 -144.97902679 490.57166791 C-148.53576064 487.80567159 -152.40748502 485.53064866 -156.25 483.1875 C-157.80565738 482.20074614 -159.36058895 481.21284461 -160.9140625 480.22265625 C-167.79379124 475.85176272 -174.71836016 471.552264 -181.64160156 467.25073242 C-186.1676739 464.43051799 -190.68075285 461.59170778 -195.1484375 458.6796875 C-195.86950684 458.21030762 -196.59057617 457.74092773 -197.33349609 457.25732422 C-199 456 -199 456 -200 454 C-200.11765747 451.80690015 -200.16984747 449.6101955 -200.19287109 447.4140625 C-200.20513733 446.39896355 -200.20513733 446.39896355 -200.21765137 445.36335754 C-200.24251623 443.1172473 -200.25903149 440.8712007 -200.2734375 438.625 C-200.27876118 437.85600372 -200.28408485 437.08700745 -200.28956985 436.29470825 C-200.31631683 432.21780392 -200.33567947 428.14093026 -200.35009766 424.06396484 C-200.36339202 420.70203163 -200.39115745 417.34071188 -200.43212891 413.97900391 C-200.48170321 409.9111873 -200.50624992 405.84392362 -200.51332474 401.77581787 C-200.52000068 400.23217741 -200.53512649 398.68854749 -200.55921555 397.14508057 C-200.70440238 387.27244341 -200.1936937 378.86012316 -193.32113647 371.10571289 C-187.9986528 365.87782496 -181.38838145 363.91845976 -174.0625 363.5625 C-167.60809854 363.81305906 -161.81971173 365.50890129 -156.921875 369.8359375 C-151.39896746 375.8925714 -147.92752825 382.00818931 -148.04858398 390.34643555 C-148.11376221 391.597229 -148.17894043 392.84802246 -148.24609375 394.13671875 C-149.36517862 408.35621826 -149.36517862 408.35621826 -145.38671875 421.47509766 C-141.19241187 425.34668724 -136.40436172 427.34274364 -131 429 C-131.2165625 427.74574219 -131.433125 426.49148438 -131.65625 425.19921875 C-135.33835303 401.95130252 -136.71771346 376.01462615 -131 353 C-130.82307617 352.23913086 -130.64615234 351.47826172 -130.46386719 350.69433594 C-128.10127828 340.57886459 -125.05863711 330.87818583 -121.234375 321.22265625 C-119.81999009 317.67685757 -119.81999009 317.67685757 -119 314 C-119.85942002 312.0911882 -119.85942002 312.0911882 -121.30859375 310.328125 C-121.80810547 309.66425781 -122.30761719 309.00039063 -122.82226562 308.31640625 C-123.35529297 307.63449219 -123.88832031 306.95257813 -124.4375 306.25 C-124.96666016 305.55261719 -125.49582031 304.85523438 -126.04101562 304.13671875 C-127.34936829 302.41582245 -128.67323952 300.70674468 -130 299 C-132.91985181 299.68088981 -135.35122304 300.58101234 -138 302 C-179.39265027 255.24163581 -201.99049341 193.97984644 -200 132 C-199.61756127 125.82577271 -198.61881101 119.9650566 -197 114 C-196.79020508 113.21012695 -196.58041016 112.42025391 -196.36425781 111.60644531 C-190.76934902 91.34148278 -180.94987085 72.52377047 -168 56 C-167.33613281 55.12730469 -166.67226562 54.25460938 -165.98828125 53.35546875 C-153.51392194 37.28808911 -139.04392962 23.13507184 -122 12 C-121.3611084 11.57976563 -120.7222168 11.15953125 -120.06396484 10.7265625 C-84.02338758 -12.62242498 -39.05167155 -19.18918343 0 0 Z " fill="#2F2E2E" transform="translate(200,11)"/>
<path d="M0 0 C0.97453125 0.47308594 1.9490625 0.94617187 2.953125 1.43359375 C23.05975996 11.81026355 39.36900412 27.97103516 55 44 C59.29692986 40.40805954 63.35470284 36.72020795 67.25 32.6875 C89.35134203 10.3014447 120.19368349 -10.38998653 152.6484375 -11.265625 C154.55727889 -11.27433742 156.46623186 -11.26885561 158.375 -11.25 C159.38594727 -11.24250732 160.39689453 -11.23501465 161.43847656 -11.22729492 C168.79337312 -11.12149884 175.81042126 -10.63672174 183 -9 C183.6894873 -8.84934082 184.37897461 -8.69868164 185.08935547 -8.54345703 C229.35562896 1.31770083 264.58076563 31.25742672 288.73046875 68.75390625 C309.91502771 102.37114941 318.36225237 143.49267529 309.53466797 182.6875 C309.35822754 183.450625 309.18178711 184.21375 309 185 C308.81195801 185.86109375 308.62391602 186.7221875 308.43017578 187.609375 C303.79825745 208.48064422 295.97447591 228.3724009 285.93261719 247.22753906 C285.02256236 248.9571197 284.15517462 250.708939 283.2890625 252.4609375 C274.77748246 269.29825521 263.73345677 285.24705263 252 300 C251.51998535 300.60714844 251.0399707 301.21429688 250.54541016 301.83984375 C243.37108377 310.89100744 235.93307529 319.60588427 228 328 C225.33333333 326.66666667 222.66666667 325.33333333 220 324 C219.55269531 324.51949219 219.10539062 325.03898437 218.64453125 325.57421875 C217.39117045 327.01999315 216.12623326 328.45579065 214.8515625 329.8828125 C213.39320315 331.55038796 212.02245464 333.2945871 210.6875 335.0625 C207.1238604 337.63163553 205.08694538 337.31626083 200.84765625 336.6640625 C195.771609 335.48034778 190.88512521 333.80464248 186 332 C186.56355747 328.61865517 187.43862301 326.03090827 189 323 C192.5267982 314.64302166 191.85698885 304.93326528 192 296 C198.54520429 292.62676336 205.1168292 289.62146292 212 287 C211.6390625 286.08476562 211.278125 285.16953125 210.90625 284.2265625 C210.4421875 283.03804688 209.978125 281.84953125 209.5 280.625 C209.0359375 279.44164062 208.571875 278.25828125 208.09375 277.0390625 C207 274 207 274 207 272 C206.08476562 272.3609375 205.16953125 272.721875 204.2265625 273.09375 C203.03804688 273.5578125 201.84953125 274.021875 200.625 274.5 C199.44164062 274.9640625 198.25828125 275.428125 197.0390625 275.90625 C194 277 194 277 192 277 C192.02984985 276.16299561 192.02984985 276.16299561 192.06030273 275.30908203 C191.82853497 266.55125671 187.52826771 260.10129449 183.0625 252.875 C182.2836393 251.58647864 181.50622051 250.29708462 180.73022461 249.00683594 C178.84532426 245.88289308 176.93951985 242.77242315 175.02490234 239.66662598 C173.57781713 237.31347514 172.14901395 234.94933922 170.71875 232.5859375 C169.83516382 231.13950521 168.9499358 229.69407361 168.0625 228.25 C167.47190796 227.28682861 167.47190796 227.28682861 166.86938477 226.30419922 C164.95922646 223.11367324 164.95922646 223.11367324 162 221 C158.58527889 220.45364462 156.10614954 220.232827 153.17480469 222.26586914 C147.22438298 227.67400723 141.65392635 233.41061214 136.1796875 239.29882812 C135.11234375 240.40194336 135.11234375 240.40194336 134.0234375 241.52734375 C133.07863525 242.52882446 133.07863525 242.52882446 132.11474609 243.55053711 C129.31830541 245.4672386 127.32278922 245.10496313 124 245 C123.74225077 231.10903714 123.54941656 217.21844857 123.43006611 203.32557964 C123.37276881 196.87367753 123.2951147 190.42338683 123.17016602 183.97241211 C123.05023593 177.74121701 122.98478921 171.51156696 122.95635033 165.27930641 C122.93609708 162.90735369 122.89654423 160.53548124 122.83696938 158.16419029 C122.34184211 137.63107411 122.34184211 137.63107411 127.70247936 131.47424793 C131.8476029 127.48065199 135.64536053 125.39790221 141.3125 124.375 C149.98117724 124.97019157 156.48683321 130.50879062 163.18481445 135.66162109 C168.70943335 140.02609206 168.70943335 140.02609206 175.3515625 141.78125 C182.8920779 140.16657861 185.75417859 133.60666392 189.72265625 127.48242188 C190.39167969 126.43634766 191.06070312 125.39027344 191.75 124.3125 C192.43449219 123.25482422 193.11898438 122.19714844 193.82421875 121.10742188 C199.12474744 113.68379644 199.12474744 113.68379644 200 105 C198.25307832 101.57193681 196.06745514 98.47482533 193.8671875 95.32421875 C193.23773224 94.39962357 192.60827698 93.47502838 191.95974731 92.52241516 C189.9444045 89.56836514 187.91019678 86.62789724 185.875 83.6875 C184.52736252 81.72027955 183.18099403 79.75218916 181.8359375 77.78320312 C179.34626543 74.14122322 176.84863298 70.50497369 174.34326172 66.8737793 C173.22830547 65.24955378 172.11387912 63.62496438 171 62 C170.41752502 61.15611725 169.83505005 60.3122345 169.23492432 59.44277954 C168.68447449 58.63513153 168.13402466 57.82748352 167.56689453 56.99536133 C167.07254913 56.27415604 166.57820374 55.55295074 166.06887817 54.80989075 C165 53 165 53 165 51 C159.30802082 49.22305322 153.15460467 49.69792847 147.24609375 49.64990234 C145.74854031 49.63329903 144.25106752 49.60595107 142.75390625 49.56787109 C140.58552334 49.51308989 138.41898155 49.49123731 136.25 49.4765625 C134.95578125 49.45674316 133.6615625 49.43692383 132.328125 49.41650391 C128.30064135 49.7445466 128.30064135 49.7445466 125 55 C118.07 68.86 118.07 68.86 111 83 C80.31 83 49.62 83 18 83 C13.05 73.1 8.1 63.2 3 53 C-0.85446086 49.94411593 -0.85446086 49.94411593 -5.09082031 49.50073242 C-5.88554749 49.4686821 -6.68027466 49.43663177 -7.49908447 49.40361023 C-8.35016785 49.38772354 -9.20125122 49.37183685 -10.078125 49.35546875 C-10.96352966 49.33599686 -11.84893433 49.31652496 -12.76116943 49.29646301 C-14.63378013 49.26377916 -16.50656355 49.23995876 -18.37939453 49.22436523 C-21.22880802 49.18777215 -24.07046237 49.08189028 -26.91796875 48.97460938 C-36.36580981 48.55715177 -36.36580981 48.55715177 -44.86035156 51.96289062 C-46.95032122 54.53470054 -48.47107437 57.06472194 -50 60 C-51.05037199 61.53544182 -52.11757905 63.0595336 -53.203125 64.5703125 C-54.22180786 66.08649164 -55.23737227 67.60477008 -56.25 69.125 C-60.35179731 75.20598622 -64.55304024 81.16683083 -69 87 C-71.00814005 89.66062506 -73.00663474 92.32829003 -75 95 C-75.59506348 95.79535156 -76.19012695 96.59070313 -76.80322266 97.41015625 C-78.66487064 99.92277423 -80.49173315 102.45764802 -82.3125 105 C-82.89451172 105.77730469 -83.47652344 106.55460937 -84.07617188 107.35546875 C-86.67738272 111.04607559 -87.93385692 113.38266456 -88.421875 117.9375 C-87.1057474 123.87664549 -82.13025822 127.91699985 -77.9375 132 C-76.68549805 133.30517578 -76.68549805 133.30517578 -75.40820312 134.63671875 C-70.45485843 139.78755698 -70.45485843 139.78755698 -63.8828125 141.85546875 C-59.14538459 140.81170948 -55.90540459 139.02576162 -51.9375 136.3125 C-51.26912109 135.87744141 -50.60074219 135.44238281 -49.91210938 134.99414062 C-46.00494343 132.44668982 -46.00494343 132.44668982 -42.34130859 129.56982422 C-37.14416118 125.21117683 -32.34762862 125.3085121 -25.75 125.5 C-24.75742188 125.49742187 -23.76484375 125.49484375 -22.7421875 125.4921875 C-15.51693153 125.5900907 -15.51693153 125.5900907 -13.38198376 127.28303242 C-10.95422103 130.29926896 -11.61283378 134.16790428 -11.65942383 137.87768555 C-11.65898575 138.78520569 -11.65854767 139.69272583 -11.65809631 140.62774658 C-11.66018831 143.63095526 -11.68353888 146.63360745 -11.70703125 149.63671875 C-11.71262574 151.71751094 -11.71689653 153.79830707 -11.71989441 155.87910461 C-11.73135474 161.35860076 -11.76083227 166.83785876 -11.79400635 172.31726074 C-11.82468156 177.90743793 -11.8383943 183.49765355 -11.85351562 189.08789062 C-11.88570073 200.05869845 -11.93691153 211.02932943 -12 222 C-12.77820445 222.34412304 -12.77820445 222.34412304 -13.5721302 222.69519806 C-15.94322249 223.74437147 -18.3136564 224.79502443 -20.68408203 225.84570312 C-21.5002449 226.2065802 -22.31640778 226.56745728 -23.15730286 226.93927002 C-28.48381703 229.3018164 -33.74650865 231.7286072 -38.875 234.5 C-39.91974487 235.06098389 -39.91974487 235.06098389 -40.9855957 235.63330078 C-71.76267206 252.41306347 -95.58800347 277.14008213 -112.87109375 307.3828125 C-114.41850011 310.07008913 -116.04987793 312.57959125 -118 315 C-126.44646925 304.62642369 -126.44646925 304.62642369 -130 299 C-132.93703384 299.62936439 -135.33788628 300.62420173 -138 302 C-179.39265027 255.24163581 -201.99049341 193.97984644 -200 132 C-199.61756127 125.82577271 -198.61881101 119.9650566 -197 114 C-196.79020508 113.21012695 -196.58041016 112.42025391 -196.36425781 111.60644531 C-190.76934902 91.34148278 -180.94987085 72.52377047 -168 56 C-167.33613281 55.12730469 -166.67226562 54.25460938 -165.98828125 53.35546875 C-153.51392194 37.28808911 -139.04392962 23.13507184 -122 12 C-121.3611084 11.57976563 -120.7222168 11.15953125 -120.06396484 10.7265625 C-84.02338758 -12.62242498 -39.05167155 -19.18918343 0 0 Z " fill="#A8CA72" transform="translate(200,11)"/>
<path d="M0 0 C0.40726318 0.77694214 0.40726318 0.77694214 0.82275391 1.56958008 C2.08924149 3.98437475 3.35699203 6.39850333 4.625 8.8125 C5.0792334 9.6780249 5.5334668 10.5435498 6.00146484 11.43530273 C8.94009064 17.02266144 11.93456746 22.56922028 15.0390625 28.06640625 C16 30 16 30 16 32 C18.82852819 32.94284273 20.55067245 33.1255988 23.4786377 33.12698364 C24.395569 33.12980347 25.31250031 33.13262329 26.25721741 33.13552856 C27.26094894 33.13350433 28.26468048 33.1314801 29.29882812 33.12939453 C30.88696571 33.13202301 30.88696571 33.13202301 32.50718689 33.13470459 C36.01522448 33.13911436 39.52321187 33.13618816 43.03125 33.1328125 C45.46358246 33.13348579 47.89591485 33.13445603 50.32824707 33.13571167 C55.42928711 33.13718746 60.53030965 33.13503788 65.63134766 33.13037109 C72.17875816 33.12467389 78.72612768 33.12795353 85.27353668 33.13394356 C90.29714264 33.13755236 95.32073884 33.1364091 100.34434509 33.13381577 C102.75894679 33.13314738 105.17354936 33.13397184 107.58815002 33.13629532 C110.95918128 33.13882704 114.33014562 33.13497382 117.70117188 33.12939453 C119.20676918 33.13243088 119.20676918 33.13243088 120.74278259 33.13552856 C121.6597139 33.13270874 122.5766452 33.12988892 123.5213623 33.12698364 C124.31850395 33.12660662 125.1156456 33.12622959 125.93694305 33.12584114 C128.1992643 33.07684592 128.1992643 33.07684592 131 32 C132.07432162 29.74441525 132.07432162 29.74441525 133 27 C133.98267607 24.94411798 134.98572783 22.89790777 136.00390625 20.859375 C136.86725586 19.13074219 136.86725586 19.13074219 137.74804688 17.3671875 C138.04573975 16.77389648 138.34343262 16.18060547 138.65014648 15.56933594 C139.56599795 13.74302469 140.47752427 11.91459923 141.38867188 10.0859375 C142.25008789 8.36503906 142.25008789 8.36503906 143.12890625 6.609375 C143.65556885 5.55717773 144.18223145 4.50498047 144.72485352 3.42089844 C146 1 146 1 147 0 C149.55502679 -0.37317235 151.99309848 -0.60251866 154.5625 -0.75 C155.25408203 -0.83765625 155.94566406 -0.9253125 156.65820312 -1.015625 C159.13085685 -1.12623765 160.70013921 -0.94445694 163 0 C165.76503737 2.79147375 167.80592912 5.94651505 169.89199829 9.26531982 C171.47503515 11.74371191 173.16385367 14.14435508 174.84538269 16.55654907 C176.65513788 19.1643051 178.42979726 21.79504109 180.20336914 24.42749023 C181.12033434 25.78358409 182.04267099 27.13605925 182.9699707 28.48510742 C184.32685457 30.4599405 185.66700023 32.44520005 187.00390625 34.43359375 C187.6302169 35.33518471 187.6302169 35.33518471 188.2691803 36.25498962 C191.03792066 40.42888238 191.03792066 40.42888238 190.8515625 43.2355957 C189.57490397 45.88078239 188.04595963 48.29344347 186.4375 50.75 C185.79683594 51.73484375 185.15617187 52.7196875 184.49609375 53.734375 C184.00238281 54.48203125 183.50867188 55.2296875 183 56 C179.12996844 54.75298983 176.58816776 52.85731363 173.49682617 50.26489258 C164.3599119 42.99494807 155.08075077 42.3467361 143.66796875 43.0859375 C137.54621816 43.82778803 133.92928893 45.62454565 129.9375 50.41015625 C129.298125 51.26480469 128.65875 52.11945313 128 53 C126.3527484 54.64467777 124.68629848 56.2703816 123 57.875 C119.19244654 61.66895505 116.75801245 64.16111347 116.7215271 69.68864441 C116.71036362 70.65198196 116.69920013 71.61531952 116.68769836 72.60784912 C116.68445808 74.19064667 116.68445808 74.19064667 116.68115234 75.80541992 C116.67110672 76.91776505 116.6610611 78.03011017 116.65071106 79.17616272 C116.61976599 82.86092603 116.60281232 86.54561632 116.5859375 90.23046875 C116.56723498 92.78209568 116.54766227 95.33371636 116.5272522 97.8853302 C116.48108722 103.92008668 116.4437138 109.95483598 116.41057932 115.98967296 C116.37236689 122.86028682 116.32295446 129.7308058 116.27259517 136.6013397 C116.1692564 150.7341561 116.08000236 164.86703361 116 179 C112.47655436 179.13877074 108.95381937 179.2223207 105.4284668 179.29638672 C104.43661125 179.33612106 103.44475571 179.37585541 102.42284393 179.41679382 C95.67265256 179.52309053 92.24641307 178.74685121 87.14453125 174.2578125 C85.26695197 172.28470189 83.53347693 170.23487808 81.8125 168.125 C80.88391417 167.07698974 79.94966111 166.03397314 79.00976562 164.99609375 C77.30377147 163.10548021 75.65087556 161.19747582 74.01098633 159.24658203 C70.61291094 155.45040748 68.13244935 154.73587838 63.1328125 154.34375 C57.6891606 156.01871981 54.26485777 163.5997591 51.53125 168.3046875 C51.12845825 168.98749786 50.7256665 169.67030823 50.31066895 170.37380981 C49.03534124 172.53791898 47.76740499 174.70624328 46.5 176.875 C45.23363297 179.03135104 43.96573495 181.18679155 42.69697571 183.34173584 C41.8849885 184.72209292 41.07472584 186.10346606 40.26628113 187.48590088 C38.24272511 190.93751791 36.16166592 194.32377865 33.95703125 197.6640625 C32.06378729 200.89126877 31.34116068 202.81214367 31.1875 206.5 C31.13980469 207.3559375 31.09210938 208.211875 31.04296875 209.09375 C31.02878906 209.7228125 31.01460937 210.351875 31 211 C30.11248047 210.69255859 30.11248047 210.69255859 29.20703125 210.37890625 C28.02173828 209.97478516 28.02173828 209.97478516 26.8125 209.5625 C26.03519531 209.29566406 25.25789062 209.02882813 24.45703125 208.75390625 C21.98690144 207.99598089 19.54007136 207.46470222 17 207 C16.15973604 208.76755526 15.32801278 210.53917263 14.5 212.3125 C14.0359375 213.29863281 13.571875 214.28476562 13.09375 215.30078125 C11.81222528 217.97800126 11.81222528 217.97800126 12 221 C12.54003662 221.23710693 13.08007324 221.47421387 13.63647461 221.71850586 C16.07121544 222.78909926 18.50437032 223.86325029 20.9375 224.9375 C21.78763672 225.31068359 22.63777344 225.68386719 23.51367188 226.06835938 C24.32255859 226.42607422 25.13144531 226.78378906 25.96484375 227.15234375 C26.7137085 227.48226318 27.46257324 227.81218262 28.23413086 228.15209961 C30 229 30 229 31 230 C31.03828969 232.12933208 31.07275107 234.25880351 31.08764648 236.38842773 C31.24694544 247.79235908 33.82943419 255.9573999 39 266 C39.66 267.65 40.32 269.3 41 271 C26.645 276.445 26.645 276.445 12 282 C12.99 285.3 13.98 288.6 15 292 C15.33 293.65 15.66 295.3 16 297 C18.62721265 296.15221152 21.25204485 295.29831643 23.875 294.4375 C25.07793701 294.04292603 25.07793701 294.04292603 26.30517578 293.64038086 C33.03619191 291.39692728 39.62398456 288.85821105 46.15966797 286.09741211 C49.90813849 284.56875631 52.14621839 283.6771556 56 285 C57.5889665 285.89190693 59.14999941 286.83454068 60.6875 287.8125 C67.63714467 292.07426739 74.1393247 294.75409277 82 297 C82 314.16 82 331.32 82 349 C65.17 349 48.34 349 31 349 C31 354.94 31 360.88 31 367 C47.83 367 64.66 367 82 367 C82 383.83 82 400.66 82 418 C76.39 418 70.78 418 65 418 C64.608125 416.02 64.21625 414.04 63.8125 412 C61.25240362 400.94230673 55.71998467 394.13970286 46.16015625 388.11328125 C41.50586677 385.7145968 37.15462361 384.74705021 31.9453125 384.5859375 C30.83671875 384.54726563 29.728125 384.50859375 28.5859375 384.46875 C27.44382813 384.4378125 26.30171875 384.406875 25.125 384.375 C23.9596875 384.33632813 22.794375 384.29765625 21.59375 384.2578125 C18.72932136 384.16389681 15.86489308 384.07822017 13 384 C12.94392578 382.69289063 12.94392578 382.69289063 12.88671875 381.359375 C11.83879221 362.37341177 5.91501934 346.15634022 -7 332 C-7.51691406 331.3915625 -8.03382813 330.783125 -8.56640625 330.15625 C-22.43948303 314.85761896 -43.19256294 308.42359405 -63.125 307.375 C-66.0830426 307.23732076 -69.0409675 307.1154448 -72 307 C-72 312.61 -72 318.22 -72 324 C-69.669375 323.9175 -67.33875 323.835 -64.9375 323.75 C-48.44113403 323.56325509 -33.15520957 329.34892814 -21.16308594 340.69189453 C-8.35914717 353.36379002 -2.97835728 368.67181769 -2.4375 386.375 C-2.37754097 388.13294778 -2.3139007 389.89077493 -2.24609375 391.6484375 C-2.22216553 392.41333496 -2.1982373 393.17823242 -2.17358398 393.96630859 C-2.06275207 396.20241281 -2.06275207 396.20241281 -1 399 C2.49219011 400.16406337 5.66612642 400.17233864 9.30078125 400.2109375 C10.76758916 400.23901266 12.23438588 400.26767716 13.70117188 400.296875 C16.00512295 400.33805638 18.3088667 400.37495836 20.61303711 400.40136719 C22.84271978 400.42911563 25.07146474 400.47498805 27.30078125 400.5234375 C28.32296501 400.5283168 28.32296501 400.5283168 29.36579895 400.53329468 C34.76036273 400.6706693 38.73992002 402.08580229 42.86328125 405.578125 C43.34152344 406.12984375 43.81976563 406.6815625 44.3125 407.25 C44.80363281 407.79140625 45.29476562 408.3328125 45.80078125 408.890625 C47.46265172 411.81378479 47.58260601 414.69249428 48 418 C27.48438503 418.28149924 6.96916695 418.49250223 -13.54798508 418.62174606 C-23.07659579 418.68337723 -32.60400014 418.7672537 -42.13183594 418.90527344 C-50.44555204 419.02564712 -58.75839382 419.1024768 -67.07295728 419.12906194 C-71.46775793 419.14458091 -75.86005954 419.18050476 -80.25405121 419.26876068 C-99.12994118 419.63335881 -114.8105975 419.93386412 -130.22710705 407.41442394 C-132.72111132 405.42469334 -135.36376312 403.82841949 -138.09765625 402.1875 C-139.7543378 401.12770517 -141.40934091 400.06528112 -143.0625 399 C-144.89039783 397.82907238 -146.71852784 396.65850714 -148.546875 395.48828125 C-149.44470703 394.91287598 -150.34253906 394.3374707 -151.26757812 393.74462891 C-156.5857039 390.34904931 -161.93036501 386.99522626 -167.27563477 383.64257812 C-168.38636353 382.94358398 -168.38636353 382.94358398 -169.51953125 382.23046875 C-170.49563354 381.61788208 -170.49563354 381.61788208 -171.49145508 380.99291992 C-173 380 -173 380 -174 379 C-174.11992251 377.21673831 -174.17018401 375.42874704 -174.19287109 373.64160156 C-174.20893402 372.49661194 -174.22499695 371.35162231 -174.24154663 370.17193604 C-174.28583241 364.92095626 -174.32751975 359.67006552 -174.35009766 354.41894531 C-174.36671783 350.96073282 -174.41146454 347.50347858 -174.4624691 344.04562759 C-174.50428855 340.74406993 -174.51128617 337.44240463 -174.5234375 334.140625 C-174.55744156 332.28102142 -174.55744156 332.28102142 -174.59213257 330.3838501 C-174.56855656 320.8079937 -174.56855656 320.8079937 -171.68603516 317.71777344 C-168.11075898 315.4313125 -166.16791059 315.25573025 -162 316 C-159.28684539 317.99293538 -157.31910185 319.56911383 -156.56225586 322.96289062 C-156.40806575 325.34318387 -156.41262117 327.67788897 -156.46875 330.0625 C-156.46548706 330.93140869 -156.46222412 331.80031738 -156.4588623 332.69555664 C-156.44572104 336.40006236 -156.49048779 340.1033572 -156.52978516 343.80761719 C-156.55026749 346.51795413 -156.54142801 349.22713264 -156.53125 351.9375 C-156.55086792 352.77095947 -156.57048584 353.60441895 -156.59069824 354.46313477 C-156.57241581 358.55461667 -156.42462076 360.43253104 -153.9128418 363.78930664 C-150.66802024 366.25195513 -147.38795866 368.39937944 -143.86328125 370.43359375 C-143.18379929 370.83401382 -142.50431732 371.2344339 -141.804245 371.64698792 C-139.64445071 372.91767444 -137.47871756 374.17780134 -135.3125 375.4375 C-133.8778386 376.27858666 -132.44358999 377.12037785 -131.00976562 377.96289062 C-128.91990498 379.19069335 -126.82927053 380.41699294 -124.73503113 381.63731384 C-120.1058087 384.33548377 -115.53004623 387.10862467 -110.99853516 389.96875 C-107.8707583 391.58269203 -105.41144648 391.62659221 -102 391 C-99.29452185 389.46689571 -99.02683003 388.08227877 -98.0625 385.125 C-97.56777455 380.37563568 -99.32898225 376.20055326 -100.8125 371.75 C-102.13440546 367.57556172 -103.19293455 363.38689195 -104.1875 359.125 C-104.35403076 358.42391113 -104.52056152 357.72282227 -104.69213867 357.00048828 C-106.42470693 349.51728683 -107.1712193 342.24796454 -107.23828125 334.578125 C-107.246353 333.6786615 -107.25442474 332.779198 -107.26274109 331.85247803 C-107.27652274 329.94968555 -107.28727114 328.04686897 -107.29516602 326.14404297 C-107.30659378 324.23608937 -107.32689621 322.32816535 -107.35668945 320.42041016 C-107.86204701 287.95895102 -97.76926213 256.91570545 -78 231 C-77.33226563 230.12214844 -76.66453125 229.24429688 -75.9765625 228.33984375 C-54.12497276 200.39917465 -24.91105186 180.80779671 8.48828125 169.140625 C11.29211887 168.13407376 11.29211887 168.13407376 13 165 C13.31373234 162.91602799 13.31373234 162.91602799 13.28761292 160.5929718 C13.30047836 159.69168045 13.31334381 158.7903891 13.32659912 157.86178589 C13.33040588 156.87526031 13.33421265 155.88873474 13.33813477 154.87231445 C13.34967087 153.83134109 13.36120697 152.79036774 13.37309265 151.71784973 C13.40746458 148.26631182 13.42591607 144.81495295 13.44140625 141.36328125 C13.44830915 140.18450094 13.45521206 139.00572063 13.46232414 137.79121971 C13.498188 131.55099727 13.52171156 125.31086558 13.53540039 119.07055664 C13.55193998 112.6285378 13.61034638 106.18761826 13.67854404 99.74596882 C13.72335507 94.78990645 13.73689698 89.8341067 13.74201775 84.87785912 C13.74990864 82.50360523 13.76954557 80.12935977 13.80124092 77.75530434 C13.84273196 74.42755779 13.83984128 71.1025754 13.82641602 67.7746582 C13.84844086 66.79825378 13.8704657 65.82184937 13.89315796 64.81585693 C13.80541567 58.39704067 12.30053779 55.19741342 7.74476337 50.65840244 C7.16899146 50.11112964 6.59321955 49.56385683 6 49 C5.18031738 48.02949707 4.36063477 47.05899414 3.51611328 46.05908203 C-1.54955619 41.91354969 -8.825564 42.88905713 -15.125 42.875 C-16.26784454 42.86231079 -16.26784454 42.86231079 -17.43377686 42.84936523 C-31.85136774 42.80220542 -41.59342248 46.69044367 -52 57 C-55.32759923 55.44805246 -57.48580485 53.69378051 -60 51 C-58.37082599 45.89123212 -55.2791433 42.00286472 -52.125 37.75 C-50.94576513 36.13994473 -49.76740029 34.52925192 -48.58984375 32.91796875 C-47.99155762 32.10118652 -47.39327148 31.2844043 -46.77685547 30.44287109 C-44.55617193 27.38981264 -42.37433684 24.31111699 -40.20776367 21.21948242 C-39.19723804 19.78572717 -38.17526634 18.35996882 -37.1418457 16.94262695 C-34.88775218 13.83362139 -32.99283279 10.98474846 -31.3515625 7.4921875 C-25.43562777 -4.24959158 -11.32574111 -0.91192623 0 0 Z " fill="#F3CC56" transform="translate(191,77)"/>
<path d="M0 0 C0.66 0 1.32 0 2 0 C3.4453125 1.46875 3.4453125 1.46875 5.125 3.5 C12.95645644 13.60137792 12.95645644 13.60137792 23.6156311 19.42132568 C24.60695038 19.44180969 25.59826965 19.4622937 26.61962891 19.48339844 C28.31256577 19.52663239 28.31256577 19.52663239 30.03970337 19.57073975 C31.25636688 19.58348938 32.4730304 19.59623901 33.7265625 19.609375 C34.98455658 19.62647522 36.24255066 19.64357544 37.53866577 19.66119385 C40.20367939 19.68954308 42.8676803 19.71022981 45.53271484 19.72070312 C48.92312666 19.73709072 52.30988133 19.80901781 55.69915199 19.89461899 C58.95800491 19.96448811 62.21706611 19.96988085 65.4765625 19.984375 C66.68108063 20.02141541 67.88559875 20.05845581 69.12661743 20.09661865 C75.85832578 20.04380333 79.55145068 19.18076034 84.64746094 14.63012695 C86.12453967 13.1118378 87.57876986 11.57069043 89 10 C90.04887433 8.97190021 91.10258505 7.94867609 92.1640625 6.93359375 C92.97617187 6.10988281 93.78828125 5.28617187 94.625 4.4375 C95.88183594 3.16712891 95.88183594 3.16712891 97.1640625 1.87109375 C97.76992188 1.25363281 98.37578125 0.63617188 99 0 C103.93362382 4.63836834 107.19240189 10.15863253 110.75 15.875 C111.44738281 16.93203125 112.14476562 17.9890625 112.86328125 19.078125 C117.89763187 27.21584245 118.9304595 33.50467867 118 43 C113.89980233 44.842305 109.79422392 46.67229455 105.6875 48.5 C104.52025391 49.02464844 103.35300781 49.54929687 102.15039062 50.08984375 C101.03212891 50.58613281 99.91386719 51.08242188 98.76171875 51.59375 C97.73006592 52.05458984 96.69841309 52.51542969 95.63549805 52.99023438 C93 54 93 54 90 54 C91.98 58.95 93.96 63.9 96 69 C101.09661609 67.98067678 105.32801517 66.20806379 110.00390625 64.08398438 C112.86038906 62.81546029 114.83517293 62 118 62 C119.04055665 70.70984454 116.31090569 76.5328955 112 84 C105.80481527 83.58411954 100.73310689 82.39748106 95 80 C94.79503906 80.97582031 94.59007812 81.95164062 94.37890625 82.95703125 C94.10949219 84.22933594 93.84007812 85.50164062 93.5625 86.8125 C93.29566406 88.07707031 93.02882813 89.34164062 92.75390625 90.64453125 C92 94 92 94 91 97 C92.65 97.33 94.3 97.66 96 98 C90.31782341 102.64905357 83.19647768 104.66533199 76.0625 106 C73.24897486 106.59099182 71.85760098 107.09154223 69.375 108.6875 C67.74853351 111.01869959 67.74853351 111.01869959 67.8125 114.25 C69.44056818 119.39126793 72.25202432 122.21825878 76 126 C76.82886719 126.86625 77.65773438 127.7325 78.51171875 128.625 C85.61547957 136.4433549 85.61547957 136.4433549 95.31018066 139.36508179 C97.05376119 139.37624814 98.79749292 139.37109174 100.54101562 139.35302734 C101.9738237 139.35626762 101.9738237 139.35626762 103.43557739 139.35957336 C105.50735004 139.36265775 107.57914101 139.35906212 109.65089417 139.34955978 C112.93994863 139.33579649 116.22840124 139.34227601 119.51745605 139.35440063 C128.86812268 139.38531535 138.21865008 139.38057993 147.56933594 139.36035156 C153.29409063 139.34937602 159.01839536 139.36275277 164.74308777 139.39024734 C166.91497014 139.39565707 169.08689837 139.3917036 171.25874329 139.37784958 C183.21363611 139.30252454 193.17727144 139.39197682 204 145 C205.2599176 145.59861343 205.2599176 145.59861343 206.54528809 146.20932007 C219.54994067 152.52694013 230.00522483 164.76915865 235.03515625 178.1484375 C235.35355469 179.08945312 235.67195312 180.03046875 236 181 C236.36931641 182.07121094 236.36931641 182.07121094 236.74609375 183.1640625 C240.28723109 195.81447038 238.25072764 208.88387487 234 221 C233.77755615 221.97839844 233.5551123 222.95679688 233.32592773 223.96484375 C231.55359584 228.02185536 229.67502205 228.73377638 225.71484375 230.61328125 C225.09855606 230.91316452 224.48226837 231.21304779 223.8473053 231.52201843 C221.88597834 232.47151043 219.91275294 233.392384 217.9375 234.3125 C215.96210402 235.25662838 213.98945035 236.20631148 212.01698303 237.15653992 C210.23294101 238.01212852 208.44264939 238.85464884 206.65209961 239.6965332 C204.13672863 240.75570309 204.13672863 240.75570309 203 242 C200.53555943 242.09500548 198.09925374 242.12557985 195.63452148 242.11352539 C194.86384338 242.11367142 194.09316528 242.11381744 193.2991333 242.1139679 C190.73975861 242.1132686 188.1804558 242.10547545 185.62109375 242.09765625 C183.85132385 242.09579213 182.08155344 242.0943682 180.31178284 242.09336853 C175.64448634 242.08954288 170.97722077 242.0797122 166.30993652 242.06866455 C161.55102965 242.05845144 156.79211779 242.05387113 152.03320312 242.04882812 C142.68878847 242.03808997 133.3443968 242.02101299 124 242 C123.01086488 239.13568989 122.03022356 236.26892327 121.05419922 233.40014648 C120.77529343 232.5952755 120.49638763 231.79040451 120.20903015 230.96114349 C118.06389036 224.62379861 116.97859777 218.78200235 117.125 212.0625 C117.13901855 210.59985718 117.13901855 210.59985718 117.15332031 209.10766602 C117.50575928 200.56245382 119.92127069 196.06706188 126 190 C126.80449142 188.83503913 127.58284206 187.65073517 128.3125 186.4375 C130 184 130 184 133 182 C136.68256285 182.1315201 139.09748237 182.26670443 142 184.625 C143.4274285 188.01514268 143.0963697 190.5941178 142 194 C141.17399058 195.66014352 140.3175125 197.30534006 139.4375 198.9375 C136.73703461 204.13505676 136.73703461 204.13505676 136.10546875 209.84375 C138.32365134 215.19063554 143.60381659 219.3799879 148 223 C150.76170144 223.92056715 152.52178855 224.14800149 155.37963867 224.20532227 C156.26032516 224.22526749 157.14101166 224.24521271 158.04838562 224.26576233 C158.99534805 224.28247482 159.94231049 224.29918732 160.91796875 224.31640625 C161.89034988 224.33718735 162.86273102 224.35796844 163.86457825 224.37937927 C166.97214665 224.44478748 170.07979985 224.50371929 173.1875 224.5625 C175.29362858 224.60569351 177.39974856 224.64930807 179.50585938 224.69335938 C184.67048591 224.80045999 189.83519778 224.90175219 195 225 C195 219.39 195 213.78 195 208 C182.13 208 169.26 208 156 208 C154.91638555 203.66554222 154.9669525 203.47108331 156.9375 199.875 C159.6876736 194.02968329 160.11893951 188.76370563 158.26953125 182.54296875 C155.07577037 174.68240625 149.98438724 170.15234903 142.25 166.8125 C134.84380202 164.96095051 129.13396417 165.54075722 122.40234375 169.28515625 C117.92211249 172.48324003 115.12208285 176.52656786 112 181 C111.09758551 182.06575954 110.19111937 183.12809779 109.28125 184.1875 C100.11197395 195.67065292 100.49598347 208.3694113 101.50878906 222.56445312 C102.15922346 227.11361459 103.50086232 231.20976669 105.15576172 235.48535156 C106 238 106 238 106 242 C96.1 242 86.2 242 76 242 C76 222.2 76 202.4 76 182 C70.39 182 64.78 182 59 182 C59 201.8 59 221.6 59 242 C50.42 242 41.84 242 33 242 C32.98541748 238.05256836 32.97083496 234.10513672 32.95581055 230.03808594 C32.90553467 217.014113 32.83910321 203.99026486 32.76428509 190.96641159 C32.71930715 183.06795332 32.67989716 175.16954034 32.65356445 167.27099609 C32.63060048 160.38713559 32.59722054 153.50341817 32.55129844 146.61967111 C32.52734442 142.97428779 32.50863001 139.32904637 32.50238609 135.68358612 C32.49522298 131.61534903 32.46480732 127.54760628 32.43237305 123.47949219 C32.43380814 122.26892654 32.43524323 121.0583609 32.4367218 119.81111145 C32.42418365 118.70335861 32.41164551 117.59560577 32.39872742 116.45428467 C32.39411845 115.49193279 32.38950949 114.52958092 32.38476086 113.53806686 C31.92680106 110.51714477 31.12986231 109.17075358 29 107 C26.32740759 106.11683231 23.86108593 105.44193672 21.125 104.875 C16.60427487 103.87862889 12.25180631 102.88413378 8 101 C11.12259437 97.87740563 14.71466712 97.85706658 19 97 C17.02 92.05 15.04 87.1 13 82 C6.98525182 83.16414481 1.81053483 84.78151986 -3.73828125 87.390625 C-6 88 -6 88 -8.09765625 87.41015625 C-10.50759358 85.62373454 -11.63641199 83.78668378 -13.125 81.1875 C-13.62257812 80.33542969 -14.12015625 79.48335938 -14.6328125 78.60546875 C-15.30957031 77.31576172 -15.30957031 77.31576172 -16 76 C-16.58394531 74.91138672 -16.58394531 74.91138672 -17.1796875 73.80078125 C-18 71 -18 71 -18 61 C-10.41 63.97 -2.82 66.94 5 70 C5.33 68.35 5.66 66.7 6 65 C7.32 61.7 8.64 58.4 10 55 C0.76 51.04 -8.48 47.08 -18 43 C-18 28.37466307 -18 28.37466307 -14.5703125 22.9296875 C-14.21991913 22.35590363 -13.86952576 21.78211975 -13.5085144 21.19094849 C-12.40687648 19.40092077 -11.26778895 17.63896492 -10.125 15.875 C-9.36845072 14.6604966 -8.61452519 13.44435471 -7.86328125 12.2265625 C-5.30873365 8.10671067 -2.68899832 4.03349748 0 0 Z " fill="#E8E8E8" transform="translate(257,253)"/>
<path d="M0 0 C0.97453125 0.47308594 1.9490625 0.94617187 2.953125 1.43359375 C23.05975996 11.81026355 39.36900412 27.97103516 55 44 C59.29692986 40.40805954 63.35470284 36.72020795 67.25 32.6875 C89.35134203 10.3014447 120.19368349 -10.38998653 152.6484375 -11.265625 C154.55727889 -11.27433742 156.46623186 -11.26885561 158.375 -11.25 C159.38594727 -11.24250732 160.39689453 -11.23501465 161.43847656 -11.22729492 C168.79337312 -11.12149884 175.81042126 -10.63672174 183 -9 C183.6894873 -8.84934082 184.37897461 -8.69868164 185.08935547 -8.54345703 C229.35562896 1.31770083 264.58076563 31.25742672 288.73046875 68.75390625 C309.91502771 102.37114941 318.36225237 143.49267529 309.53466797 182.6875 C309.35822754 183.450625 309.18178711 184.21375 309 185 C308.81195801 185.86109375 308.62391602 186.7221875 308.43017578 187.609375 C303.79825745 208.48064422 295.97447591 228.3724009 285.93261719 247.22753906 C285.02256236 248.9571197 284.15517462 250.708939 283.2890625 252.4609375 C274.77748246 269.29825521 263.73345677 285.24705263 252 300 C251.51998535 300.60714844 251.0399707 301.21429688 250.54541016 301.83984375 C243.37108377 310.89100744 235.93307529 319.60588427 228 328 C224.84456479 326.63696103 223.06811867 325.1817387 220.9375 322.5 C218.99127814 320.06335088 217.66606818 318.77737879 215 317 C216.54326422 313.37958555 218.73902705 310.96595232 221.4375 308.125 C226.84709358 302.30924219 231.74690117 296.16804892 236.5703125 289.86230469 C238.0037969 287.99505417 239.4542402 286.14192794 240.90625 284.2890625 C274.28357452 241.26817381 299.46193797 186.22548843 293.3125 130.75 C287.77292769 92.7423789 263.2458036 56.63241006 232.91015625 33.66015625 C205.78241464 14.42412129 176.07694337 4.20359971 142.50585938 8.3046875 C138.4611235 9.05898648 134.76704909 10.37251311 131 12 C129.42412109 12.63615234 129.42412109 12.63615234 127.81640625 13.28515625 C103.36106614 23.8247326 84.27275923 41.42245903 65.84790039 60.18847656 C65.24453857 60.80045898 64.64117676 61.41244141 64.01953125 62.04296875 C63.48432861 62.58977295 62.94912598 63.13657715 62.39770508 63.69995117 C59.93890737 65.98695515 57.43772219 66.67467739 54.078125 66.55859375 C47.54806136 64.80333228 42.32939869 57.33831496 37.73046875 52.62890625 C27.75120973 42.44662307 17.74148132 33.11949219 6 25 C5.13084961 24.39575195 5.13084961 24.39575195 4.24414062 23.77929688 C-19.15778396 7.78478101 -43.75076432 4.60454242 -71.1875 9.74609375 C-95.98925655 14.81808509 -117.67943314 29.28334148 -135.61474609 46.66162109 C-136.80926144 47.81571576 -138.02212082 48.95076858 -139.23828125 50.08203125 C-156.77581463 66.77607605 -171.97999188 91.61754145 -178 115 C-178.19464844 115.75168457 -178.38929688 116.50336914 -178.58984375 117.27783203 C-190.1844695 164.10155351 -173.83469479 212.68043263 -150 253 C-142.73253401 264.75820555 -135.16798881 276.61652933 -126.12817383 287.08447266 C-125 289 -125 289 -125.1965332 291.1159668 C-126.35731566 293.83786233 -128.14716855 295.26608549 -130.375 297.1875 C-131.16648437 297.88230469 -131.95796875 298.57710938 -132.7734375 299.29296875 C-135 301 -135 301 -138 302 C-179.39265027 255.24163581 -201.99049341 193.97984644 -200 132 C-199.61756127 125.82577271 -198.61881101 119.9650566 -197 114 C-196.79020508 113.21012695 -196.58041016 112.42025391 -196.36425781 111.60644531 C-190.76934902 91.34148278 -180.94987085 72.52377047 -168 56 C-167.33613281 55.12730469 -166.67226562 54.25460938 -165.98828125 53.35546875 C-153.51392194 37.28808911 -139.04392962 23.13507184 -122 12 C-121.3611084 11.57976563 -120.7222168 11.15953125 -120.06396484 10.7265625 C-84.02338758 -12.62242498 -39.05167155 -19.18918343 0 0 Z " fill="#2D2E2D" transform="translate(200,11)"/>
<path d="M0 0 C11.22 0 22.44 0 34 0 C34 5.61 34 11.22 34 17 C22.78 17 11.56 17 0 17 C0 11.39 0 5.78 0 0 Z " fill="#2F2F2D" transform="translate(239,179)"/>
<path d="M0 0 C0.70125 0.19335938 1.4025 0.38671875 2.125 0.5859375 C2.90746094 0.7921875 3.68992187 0.9984375 4.49609375 1.2109375 C5.36363281 1.4584375 6.23117187 1.7059375 7.125 1.9609375 C8.12660156 2.2290625 9.12820313 2.4971875 10.16015625 2.7734375 C12.81966992 3.48721665 15.47363378 4.21756379 18.125 4.9609375 C16.69001627 8.16982071 14.90756013 10.53900734 12.5625 13.1484375 C11.94246094 13.84324219 11.32242188 14.53804688 10.68359375 15.25390625 C9.84641231 16.17081926 9.0029528 17.0829847 8.125 17.9609375 C5.83348583 18.04884725 3.53927476 18.06787788 1.24609375 18.05859375 C0.21610008 18.05647133 0.21610008 18.05647133 -0.83470154 18.05430603 C-3.03567801 18.04869229 -5.23655409 18.03613757 -7.4375 18.0234375 C-8.92643083 18.01842426 -10.41536324 18.01386105 -11.90429688 18.00976562 C-15.56123075 17.99871843 -19.21810558 17.98144463 -22.875 17.9609375 C-23.535 16.6409375 -24.195 15.3209375 -24.875 13.9609375 C-24.35292969 13.75339844 -23.83085937 13.54585938 -23.29296875 13.33203125 C-16.38097197 10.43891876 -8.37075929 6.86540496 -3.3046875 1.20703125 C-1.875 -0.0390625 -1.875 -0.0390625 0 0 Z " fill="#A6C871" transform="translate(374.875,357.0390625)"/>
<path d="M0 0 C5.61 0 11.22 0 17 0 C17 5.61 17 11.22 17 17 C11.39 17 5.78 17 0 17 C0 11.39 0 5.78 0 0 Z " fill="#323232" transform="translate(299,316)"/>
<path d="M0 0 C5.61 0 11.22 0 17 0 C17 5.61 17 11.22 17 17 C11.39 17 5.78 17 0 17 C0 11.39 0 5.78 0 0 Z " fill="#313131" transform="translate(324,290)"/>
<path d="M0 0 C5.61 0 11.22 0 17 0 C17 5.61 17 11.22 17 17 C11.39 17 5.78 17 0 17 C0 11.39 0 5.78 0 0 Z " fill="#2F2F2F" transform="translate(273,290)"/>
<path d="M0 0 C5.61 0 11.22 0 17 0 C17 5.61 17 11.22 17 17 C11.39 17 5.78 17 0 17 C0 11.39 0 5.78 0 0 Z " fill="#2E2E2D" transform="translate(273,145)"/>
<path d="M0 0 C5.61 0 11.22 0 17 0 C17 5.61 17 11.22 17 17 C11.39 17 5.78 17 0 17 C0 11.39 0 5.78 0 0 Z " fill="#2F2E2D" transform="translate(222,145)"/>
</svg>